# xmcd
#
# Track frame offsets: 
#        150
#        20152
#        35240
#        47787
#        78747
#        103142
#        120180
#        140095
#        153295
#        170575
#
# Disc length: 2472 seconds
#
# Revision: 0
# Processed by: cddbd v1.5.2PL0 Copyright (c) Steve Scherf et al.
# Submitted via: ExactAudioCopy v0.99pb4
#
DISCID=8a09a60a
DTITLE=J. J. Johnson - High On Zion's Side
DYEAR=2000
DGENRE=Blues
TTITLE0=High On Zion's Side
TTITLE1=Shaking It Out
TTITLE2=Three Clean Linens
TTITLE3=Somebody Who Understands
TTITLE4=Supersonic Blues Man
TTITLE5=Mighty Wonder
TTITLE6=Sin In The Garden
TTITLE7=Soul Food
TTITLE8=Hurricane
TTITLE9=Pure Love
EXTD=
EXTT0=
EXTT1=
EXTT2=
EXTT3=
EXTT4=
EXTT5=
EXTT6=
EXTT7=
EXTT8=
EXTT9=
PLAYORDER=
